<svg xmlns="http://www.w3.org/2000/svg" xmlns:xlink="http://www.w3.org/1999/xlink" version="1.1" x="0px" y="0px" viewBox="0 0 64 64" style="enable-background:new 0 0 64 64;max-width:100%" xml:space="preserve"><g style="" fill="currentColor"><path d="M47.972,40.27L39,37.279v-2.801c0.109-0.09,0.208-0.19,0.313-0.284C40.468,34.713,41.724,35,43,35c4.963,0,9-4.038,9-9   c0-3.451-1.95-6.521-5-8.036V16c0-1.416-0.201-2.815-0.59-4.161c0.377-0.492,0.59-1.094,0.59-1.731   c0-1.052-0.575-2.015-1.502-2.514L34.354,1.593c-1.443-0.776-3.266-0.777-4.709,0l-11.145,6C17.575,8.093,17,9.057,17,10.108   c0,0.637,0.213,1.239,0.59,1.731C17.201,13.185,17,14.584,17,16v8c0,2.555,1.934,4.645,4.411,4.94   c0.611,2.197,1.878,4.123,3.589,5.538v2.801l-8.972,2.991C12.423,41.471,10,44.832,10,48.633c0,1.746,0.512,3.437,1.48,4.891   L12,54.303V63h40v-8.697l0.52-0.779c0.969-1.454,1.48-3.145,1.48-4.89C54,44.832,51.577,41.471,47.972,40.27z M39,41   c0,1.654-1.346,3-3,3c-1.16,0-2.188-0.667-2.685-1.675l4.833-3.222l0.217,0.073C38.769,39.699,39,40.331,39,41z M25.632,39.177   l0.22-0.073l4.833,3.222C30.188,43.333,29.16,44,28,44c-1.654,0-3-1.346-3-3C25,40.336,25.23,39.699,25.632,39.177z M29,45.888   c1.212-0.247,2.273-0.935,3-1.91c0.727,0.975,1.788,1.662,3,1.91V61h-6V45.888z M50,26c0,3.86-3.141,7-7,7   c-0.764,0-1.518-0.138-2.236-0.38c0.824-1.088,1.45-2.33,1.825-3.68C45.066,28.645,47,26.555,47,24v-3.726   C48.852,21.564,50,23.669,50,26z M21,19.101c-0.743,0.152-1.416,0.482-2,0.924V16c0-0.911,0.097-1.813,0.283-2.693l3.592,2.873   l0.571-0.284C23.484,15.876,27.312,14,32,14s8.516,1.876,8.554,1.895l0.572,0.285l3.591-2.873C44.903,14.187,45,15.089,45,16v4.026   c-0.584-0.442-1.257-0.773-2-0.924V18h-2c-3.009,0-5.992-0.995-8.4-2.8L32,14.75l-0.6,0.45C28.992,17.005,26.009,18,23,18h-2   V19.101z M43,26v-4.816c1.161,0.414,2,1.514,2,2.816c0,1.317-0.859,2.427-2.042,2.829C42.979,26.554,43,26.28,43,26z M19.449,9.355   l11.144-6c0.863-0.465,1.951-0.464,2.814,0l11.143,6C44.827,9.504,45,9.793,45,10.108c0,0.261-0.117,0.505-0.321,0.668l-3.824,3.06   C39.521,13.266,36.099,12,32,12s-7.521,1.266-8.854,1.836l-3.825-3.06C19.117,10.613,19,10.37,19,10.108   C19,9.793,19.173,9.504,19.449,9.355z M19,24c0-1.302,0.839-2.402,2-2.816V26c0,0.28,0.021,0.554,0.042,0.829   C19.859,26.427,19,25.317,19,24z M23,26v-6c3.193,0,6.36-0.98,9-2.772C34.64,19.02,37.807,20,41,20v6c0,4.962-4.037,9-9,9   S23,30.962,23,26z M32,37c1.801,0,3.498-0.444,5-1.214v1.679l-5,3.333l-5-3.333v-1.679C28.502,36.556,30.199,37,32,37z    M16.661,42.167l6.443-2.148C23.039,40.341,23,40.668,23,41c0,2.414,1.721,4.434,4,4.899V61h-5v-1.414l-0.293-0.293   C20.606,58.192,20,56.728,20,55.171V55v-0.171c0-1.557,0.606-3.021,1.707-4.122L22,50.414V47h-2v2.602   c-0.878,0.977-1.479,2.142-1.778,3.398h-4.687l-0.39-0.585C12.396,51.291,12,49.983,12,48.633   C12,45.694,13.873,43.096,16.661,42.167z M18.222,57H14v-2h4v0.171C18,55.796,18.08,56.407,18.222,57z M14,59h5v-0.009   c0.28,0.499,0.61,0.973,1,1.407V61h-6V59z M44,61v-0.602c0.39-0.434,0.72-0.908,1-1.407V59h5v2H44z M50,55v2h-4.222   C45.92,56.407,46,55.796,46,55.171V55H50z M50.855,52.415L50.465,53h-4.687c-0.3-1.256-0.9-2.421-1.778-3.398V47h-2v3.414   l0.293,0.293C43.394,51.808,44,53.272,44,54.829V55v0.171c0,1.557-0.606,3.021-1.707,4.122L42,59.586V61h-5V45.899   c2.279-0.465,4-2.484,4-4.899c0-0.332-0.034-0.659-0.098-0.978l6.437,2.146C50.127,43.096,52,45.694,52,48.633   C52,49.983,51.604,51.291,50.855,52.415z" style="" fill="currentColor"/><circle cx="27" cy="23" r="1" style="" fill="currentColor"/><circle cx="37" cy="23" r="1" style="" fill="currentColor"/><path d="M32,32c2.206,0,4-1.794,4-4h-2c0,1.103-0.897,2-2,2s-2-0.897-2-2h-2C28,30.206,29.794,32,32,32z" style="" fill="currentColor"/><polygon points="31,11 33,11 33,9 35,9 35,7 33,7 33,5 31,5 31,7 29,7 29,9 31,9  " style="" fill="currentColor"/><rect x="31.036" y="47.302" width="2" height="1.969" style="" fill="currentColor"/><rect x="31" y="52.031" width="2" height="1.969" style="" fill="currentColor"/><rect x="30.964" y="56.761" width="2" height="1.969" style="" fill="currentColor"/></g></svg>