<svg xmlns="http://www.w3.org/2000/svg" viewBox="0 0 64 64" x="0px" y="0px" style="max-width:100%"><g style="" fill="currentColor"><rect x="17" y="19" width="2" height="2" style="" fill="currentColor"/><rect x="27" y="19" width="2" height="2" style="" fill="currentColor"/><path d="M27,25H25a2,2,0,0,1-4,0H19a4,4,0,0,0,8,0Z" style="" fill="currentColor"/><path d="M43,13c.031,0,.062,0,.094,0,1.146-.108,3.92-.447,4.9-1.269a3,3,0,1,0-3.856-4.6c-.98.822-1.8,3.494-2.1,4.6A1,1,0,0,0,43,13Zm2.422-4.337a1,1,0,1,1,1.286,1.531,7.5,7.5,0,0,1-2.288.615A7.44,7.44,0,0,1,45.422,8.663Z" style="" fill="currentColor"/><path d="M47.46,15.74c-1.259-.218-3.83.871-4.877,1.351a1,1,0,0,0-.285,1.62c.819.81,2.861,2.716,4.12,2.938A3,3,0,1,0,47.46,15.74Zm-.693,3.939a7.478,7.478,0,0,1-1.942-1.357,7.6,7.6,0,0,1,2.287-.612,1,1,0,1,1-.345,1.969Z" style="" fill="currentColor"/><path d="M4,8.163H4C5.05,8.9,7.842,8.993,8.994,9H9a1,1,0,0,0,.937-1.348c-.4-1.08-1.446-3.67-2.493-4.4A3,3,0,0,0,4,8.163Zm.9-3.031A1,1,0,0,1,6.3,4.886,7.444,7.444,0,0,1,7.481,6.937a7.465,7.465,0,0,1-2.332-.413A1,1,0,0,1,4.9,5.132Z" style="" fill="currentColor"/><path d="M4.728,18.293a2.973,2.973,0,0,0,1.716-.542c1.047-.733,2.093-3.323,2.493-4.4a1,1,0,0,0-.118-.922A1.05,1.05,0,0,0,7.994,12c-1.152.007-3.944.1-4.991.836H3a3,3,0,0,0,1.726,5.456Zm-.579-3.817a7.474,7.474,0,0,1,2.333-.413A7.487,7.487,0,0,1,5.3,16.114a1,1,0,0,1-1.148-1.638Z" style="" fill="currentColor"/><path d="M61.868,50.726A5.989,5.989,0,0,0,57.114,46.1a5.918,5.918,0,0,0-4.831,1.206A3.078,3.078,0,0,1,50.375,48H43.911a10.97,10.97,0,0,0-7.633-9.145L28,36.266v-3.48a11.08,11.08,0,0,0,4.166-3.718A12.922,12.922,0,0,0,39,31a1,1,0,0,0,1-1V16a10.993,10.993,0,0,0-5.02-9.2,2.987,2.987,0,0,0-4.84-2.154A10.986,10.986,0,0,0,12,13v3a3,3,0,0,0,0,6v1a11,11,0,0,0,6,9.786v3.479l-8.277,2.59A10.94,10.94,0,0,0,2,49.35V61a1,1,0,0,0,1,1H43a1,1,0,0,0,1-1V56h6.376a2.981,2.981,0,0,1,1.874.665A5.889,5.889,0,0,0,56,58a6.007,6.007,0,0,0,5.868-7.274ZM34.558,60H11.442a5.2,5.2,0,0,0-.475-.506A8.1,8.1,0,0,1,9,54a8.257,8.257,0,0,1,1.873-5.408,8.963,8.963,0,0,0,2.512-5.382l.354-3.516L16,38.987V40a7.008,7.008,0,0,0,7,7,7.008,7.008,0,0,0,7-7V38.986l2.261.708.354,3.517a8.99,8.99,0,0,0,.783,2.824c-.17.017-.341.036-.513.067A6,6,0,0,0,34,58a5.877,5.877,0,0,0,2.3-.481,5.61,5.61,0,0,1-1.264,1.975A5.2,5.2,0,0,0,34.558,60Zm1.93-4.887A3.906,3.906,0,0,1,34,56a4,4,0,0,1-.754-7.931,3.943,3.943,0,0,1,3.221.8A5.084,5.084,0,0,0,39.625,50H40v4h-.376A5,5,0,0,0,36.488,55.113ZM42,50h2v4H42Zm4,0h2v4H46Zm-4.125-2h-2.25a3.078,3.078,0,0,1-1.908-.692A5.97,5.97,0,0,0,35.84,46.3,6.87,6.87,0,0,1,34.6,43.01l-.268-2.667,1.348.422A8.955,8.955,0,0,1,41.875,48ZM32,14v2H14V14Zm2,4a1,1,0,0,1,0,2Zm4-2V28.956a10.9,10.9,0,0,1-4.869-1.671A10.949,10.949,0,0,0,34,23V22a3,3,0,0,0,0-6V13a10.979,10.979,0,0,0-.539-3.388,2.818,2.818,0,0,0,.468-.322,2.96,2.96,0,0,0,.455-.488A9,9,0,0,1,38,16ZM33,7a.839.839,0,0,1-.017.166.979.979,0,0,1-.326.573,11.029,11.029,0,0,0-1.094-1.628A.983.983,0,0,1,32,6,1,1,0,0,1,33,7ZM23,4a9.011,9.011,0,0,1,8.941,8H14.059A9.011,9.011,0,0,1,23,4ZM11,19a1,1,0,0,1,1-1v2A1,1,0,0,1,11,19Zm3,4V18H32v5a9,9,0,0,1-18,0Zm5.3,14.955A1,1,0,0,0,20,37V33.574a10.776,10.776,0,0,0,6,0V37a1,1,0,0,0,.7.954l1.3.407V40a5.006,5.006,0,0,1-5,5,5.009,5.009,0,0,1-5-5V38.361ZM4,49.35a8.948,8.948,0,0,1,6.319-8.585l1.345-.421L11.4,43.01A6.958,6.958,0,0,1,9.45,47.186,10.239,10.239,0,0,0,7,54a10.752,10.752,0,0,0,1.791,6H4ZM42,60H37.217a10.259,10.259,0,0,0,1.567-3.869,2.982,2.982,0,0,1,.84-.131H42Zm17.1-5.477A3.989,3.989,0,0,1,56,56a3.906,3.906,0,0,1-2.489-.888A5,5,0,0,0,50.376,54H50V50h.375a5.084,5.084,0,0,0,3.158-1.13,3.939,3.939,0,0,1,3.221-.8h0A4,4,0,0,1,59.1,54.523Z" style="" fill="currentColor"/><path d="M56,53v2a3,3,0,0,0,3-3H57A1,1,0,0,1,56,53Z" style="" fill="currentColor"/></g></svg>