<svg xmlns="http://www.w3.org/2000/svg" viewBox="0 0 64 64" x="0px" y="0px" style="max-width:100%"><g style="" fill="currentColor"><path d="M56.925,8.286A10.955,10.955,0,0,0,47,2H45A11.013,11.013,0,0,0,34,13v2.556A3.987,3.987,0,0,0,36,23h.223A9.891,9.891,0,0,0,41,29.631V34H36a5.969,5.969,0,0,0-4,1.54V24a4,4,0,0,0-4-4H20V3a1,1,0,0,0-1.447-.895L17,2.882l-1.553-.777a1,1,0,0,0-.894,0L13,2.882l-1.553-.777a1,1,0,0,0-.894,0L9,2.882,7.447,2.105A1,1,0,0,0,6,3V20a4,4,0,0,0-4,4V58a4,4,0,0,0,4,4H28a3.959,3.959,0,0,0,2-.556V62h2V40a4,4,0,0,1,4-4h2l-1.8,2.4a1,1,0,0,0,.353,1.5l2.759,1.379-1.019,1.019a1,1,0,0,0,.126,1.521L45,48.515V62h2V48.515l6.581-4.7a1,1,0,0,0,.126-1.521l-1.019-1.019L55.447,39.9a1,1,0,0,0,.353-1.5L54,36h2a4,4,0,0,1,4,4V62h2V40a6.006,6.006,0,0,0-6-6H51V29.63a9.948,9.948,0,0,0,3.427-3.246A7,7,0,0,0,61,31a1,1,0,0,0,1-1V15a6.966,6.966,0,0,0-5.075-6.714ZM8,4.618l.553.277a1,1,0,0,0,.894,0L11,4.118l1.553.777a1,1,0,0,0,.894,0L15,4.118l1.553.777a1,1,0,0,0,.894,0L18,4.618V20H8ZM30,40V58a2,2,0,0,1-2,2H6a2,2,0,0,1-2-2V24a2,2,0,0,1,2-2H28a2,2,0,0,1,2,2ZM58,19a2,2,0,0,1-2,2V17A2,2,0,0,1,58,19ZM36,21a2,2,0,0,1,0-4Zm2.519,17.642,1.275-1.7,1.4,3.039Zm2.023,4.231,1.165-1.166a1,1,0,0,0,.177-.239l.564,1.222,1.063,2.3ZM46,45.613l-4.473-9.692A2,2,0,0,0,43,34V30.523a9.672,9.672,0,0,0,6,0V34a2,2,0,0,0,1.473,1.921Zm2.489-.62,1.063-2.3.564-1.222a1,1,0,0,0,.177.239l1.165,1.166Zm3.717-8.052,1.275,1.7L50.8,39.98ZM54,21a7.956,7.956,0,0,1-4.447,7.166,8.121,8.121,0,0,1-7.108,0A7.955,7.955,0,0,1,38,21V17c.723,0,1.426-.016,2.106-.042a1.5,1.5,0,1,0,2.685-.207,14.3,14.3,0,0,0,7.692-3.125l1.35-1.105L54,16.268ZM52.976,10.5a1,1,0,0,0-1.5-.274l-2.26,1.85C45.876,14.806,42.037,15,37,15H36V13a9.011,9.011,0,0,1,9-9h2a8.968,8.968,0,0,1,8.291,5.514A8.8,8.8,0,0,1,56,13v2h-.423ZM60,19v9.9A5.008,5.008,0,0,1,56,24V23a3.987,3.987,0,0,0,2-7.444V13a10.906,10.906,0,0,0-.211-2.137A4.935,4.935,0,0,1,60,15ZM37.5,46.645a6.757,6.757,0,0,0,.176,8.712,1,1,0,0,1,.234.629l.086,6-2,.028-.081-5.655a8.736,8.736,0,0,1,.056-11Zm16.73,8.712a6.757,6.757,0,0,0,.176-8.712l1.529-1.29a8.736,8.736,0,0,1,.061,11V62H54V56A1,1,0,0,1,54.234,55.357ZM52,17.5A1.5,1.5,0,1,1,50.5,16,1.5,1.5,0,0,1,52,17.5ZM47,22h2a3,3,0,0,1-6,0h2a1,1,0,0,0,2,0ZM43,52H41V50h2Zm-2,4h2v2H41ZM11,36H7a1,1,0,0,0-1,1v4a1,1,0,0,0,1,1h4a1,1,0,0,0,1-1V37A1,1,0,0,0,11,36Zm-1,4H8V38h2Zm9-4H15a1,1,0,0,0-1,1v4a1,1,0,0,0,1,1h4a1,1,0,0,0,1-1V37A1,1,0,0,0,19,36Zm-1,4H16V38h2Zm9-4H23a1,1,0,0,0-1,1v4a1,1,0,0,0,1,1h4a1,1,0,0,0,1-1V37A1,1,0,0,0,27,36Zm-1,4H24V38h2ZM11,44H7a1,1,0,0,0-1,1v4a1,1,0,0,0,1,1h4a1,1,0,0,0,1-1V45A1,1,0,0,0,11,44Zm-1,4H8V46h2Zm9-4H15a1,1,0,0,0-1,1v4a1,1,0,0,0,1,1h4a1,1,0,0,0,1-1V45A1,1,0,0,0,19,44Zm-1,4H16V46h2Zm9-4H23a1,1,0,0,0-1,1V57a1,1,0,0,0,1,1h4a1,1,0,0,0,1-1V45A1,1,0,0,0,27,44ZM26,56H24V46h2ZM11,52H7a1,1,0,0,0-1,1v4a1,1,0,0,0,1,1h4a1,1,0,0,0,1-1V53A1,1,0,0,0,11,52Zm-1,4H8V54h2Zm9-4H15a1,1,0,0,0-1,1v4a1,1,0,0,0,1,1h4a1,1,0,0,0,1-1V53A1,1,0,0,0,19,52Zm-1,4H16V54h2Zm9-32H7a1,1,0,0,0-1,1v8a1,1,0,0,0,1,1H27a1,1,0,0,0,1-1V25A1,1,0,0,0,27,24Zm-1,8H8V26H26Zm-2-2H22V28h2Zm-4,0H18V28h2Zm-4,0H14V28h2ZM10,16h6v2H10Zm0-4h6v2H10Zm0-4h6v2H10Z" style="" fill="currentColor"/></g></svg>