<svg xmlns="http://www.w3.org/2000/svg" xmlns:xlink="http://www.w3.org/1999/xlink" version="1.1" x="0px" y="0px" viewBox="0 0 100 100" style="enable-background:new 0 0 100 100;max-width:100%" xml:space="preserve"><g style="" fill="currentColor"><path d="M54.222,55.01c0.812-0.167,1.334-0.96,1.166-1.772c-0.167-0.813-0.962-1.333-1.771-1.167   c-1.181,0.243-2.397,0.367-3.616,0.367c-9.836,0-17.838-8.002-17.838-17.838S40.164,16.761,50,16.761S67.838,24.764,67.838,34.6   c0,5.353-2.373,10.376-6.51,13.781c-0.64,0.526-0.731,1.472-0.205,2.111c0.527,0.639,1.472,0.732,2.111,0.205   c4.832-3.977,7.604-9.844,7.604-16.097c0-11.49-9.348-20.838-20.838-20.838S29.162,23.109,29.162,34.6S38.51,55.438,50,55.438   C51.422,55.438,52.842,55.294,54.222,55.01z" style="" fill="currentColor"/><path d="M62.668,38.376v-7.564c0-0.829-0.672-1.5-1.5-1.5h-5.892v-5.88c0-0.829-0.672-1.5-1.5-1.5h-7.563   c-0.828,0-1.5,0.671-1.5,1.5v5.88h-5.881c-0.828,0-1.5,0.671-1.5,1.5v7.564c0,0.829,0.672,1.5,1.5,1.5h5.881v5.891   c0,0.829,0.672,1.5,1.5,1.5h7.563c0.828,0,1.5-0.671,1.5-1.5v-5.891h5.892C61.996,39.876,62.668,39.205,62.668,38.376z    M59.668,36.876h-5.892c-0.828,0-1.5,0.671-1.5,1.5v5.891h-4.563v-5.891c0-0.829-0.672-1.5-1.5-1.5h-5.881v-4.564h5.881   c0.828,0,1.5-0.671,1.5-1.5v-5.88h4.563v5.88c0,0.829,0.672,1.5,1.5,1.5h5.892V36.876z" style="" fill="currentColor"/><path d="M35.93,70.58c-2.12,0-3.994,1.275-4.773,3.244l-5.638,14.127c-0.636,1.583-0.444,3.371,0.512,4.786   C26.988,94.154,28.581,95,30.29,95h39.42c1.709,0,3.302-0.846,4.26-2.264c0.956-1.415,1.147-3.203,0.514-4.783l-5.639-14.125   c-0.78-1.973-2.654-3.248-4.774-3.248h-1.463c8.357-8.614,17.891-21.715,17.481-36.387C79.633,17.823,66.415,5,49.999,5   C33.401,5,19.898,18.504,19.898,35.102c0,14.3,9.318,27.045,17.496,35.479H35.93z M66.057,74.936l5.642,14.133   c0.268,0.667,0.189,1.391-0.214,1.987C71.079,91.656,70.433,92,69.71,92H30.29c-0.723,0-1.369-0.344-1.774-0.944   c-0.403-0.597-0.481-1.321-0.212-1.99l5.641-14.134c0.325-0.821,1.104-1.352,1.985-1.352h4.503   c2.946,2.783,5.533,4.889,7.178,6.158c0.703,0.542,1.546,0.813,2.388,0.813c0.844,0,1.688-0.271,2.391-0.815   c1.656-1.277,4.241-3.38,7.181-6.156h4.5C64.951,73.58,65.73,74.111,66.057,74.936z M49.999,8c14.78,0,26.68,11.542,27.092,26.277   c0.421,15.116-10.694,28.648-19.135,36.704c-0.024,0.022-0.048,0.044-0.071,0.068c-3,2.858-5.659,5.026-7.329,6.313   c-0.333,0.256-0.78,0.257-1.113,0.001c-1.661-1.282-4.327-3.456-7.34-6.328c-0.013-0.013-0.026-0.025-0.039-0.038   c-8.278-7.901-19.166-21.103-19.166-35.896C22.898,20.158,35.056,8,49.999,8z" style="" fill="currentColor"/></g></svg>