<svg xmlns="http://www.w3.org/2000/svg" class="si609554e18304ac0021dc36e0da8cfce0347d483e83b3f0630c60e213items018c785f51d60484e9fc903312867e6131620399337460 svgIcon_1J7 filled_Qbi" viewBox="0 0 32 32"><path class="outer_bDW" d="M0,0 L32,0 L32,32 L0,32 L0,0 Z M9.97232285,11.5995823 C11.0610099,11.5995823 11.9435914,10.7947111 11.9435914,9.80075848 C11.9435914,8.8059265 11.0610099,8 9.97232285,8 C8.88258153,8 8,8.8059265 8,9.80075848 C8,10.7947111 8.88258153,11.5995823 9.97232285,11.5995823 Z M8.4518207,23.1711013 L11.9888237,23.1711013 L11.9888237,12.9700277 L8.4518207,12.9700277 L8.4518207,23.1711013 Z M16.9530531,17.4974678 C16.9530531,16.3276256 17.5065334,15.1836392 18.8299664,15.1836392 C20.1533994,15.1836392 20.4788107,16.3276256 20.4788107,17.4695014 L20.4788107,23.0408069 L24,23.0408069 L24,17.2417242 C24,13.2127953 21.6184531,12.518207 20.1533994,12.518207 C18.6895756,12.518207 17.8821971,13.0133365 16.9530531,14.2130799 L16.9530531,12.8397333 L13.4218484,12.8397333 L13.4218484,23.0408069 L16.9530531,23.0408069 L16.9530531,17.4974678 Z"/><path d="M1,1 L1,31 L31,31 L31,1 L1,1 Z M0,0 L32,0 L32,32 L0,32 L0,0 Z" class="border_2yy"/><path class="logo_2gS" d="M9.97232285,11.5995823 C8.88258153,11.5995823 8,10.7947111 8,9.80075848 C8,8.8059265 8.88258153,8 9.97232285,8 C11.0610099,8 11.9435914,8.8059265 11.9435914,9.80075848 C11.9435914,10.7947111 11.0610099,11.5995823 9.97232285,11.5995823 Z M8.4518207,23.1711013 L8.4518207,12.9700277 L11.9888237,12.9700277 L11.9888237,23.1711013 L8.4518207,23.1711013 Z M16.9530531,17.4974678 L16.9530531,23.0408069 L13.4218484,23.0408069 L13.4218484,12.8397333 L16.9530531,12.8397333 L16.9530531,14.2130799 C17.8821971,13.0133365 18.6895756,12.518207 20.1533994,12.518207 C21.6184531,12.518207 24,13.2127953 24,17.2417242 L24,23.0408069 L20.4788107,23.0408069 L20.4788107,17.4695014 C20.4788107,16.3276256 20.1533994,15.1836392 18.8299664,15.1836392 C17.5065334,15.1836392 16.9530531,16.3276256 16.9530531,17.4974678 Z" style="color:#fff;fill:#fff"/></svg>