<svg xmlns="http://www.w3.org/2000/svg" xmlns:xlink="http://www.w3.org/1999/xlink" version="1.1" x="0px" y="0px" viewBox="0 0 64 64" style="enable-background:new 0 0 64 64;max-width:100%" xml:space="preserve"><path d="M11,61c0,0.5522842,0.4477148,1,1,1h40c0.5522842,0,1-0.4477158,1-1v-7c-0.0044098-3.8641663-3.1358337-6.9955902-7-7h-8  v-4.6240005C41.7077713,40.235321,43.9941788,36.2813606,44,32v-5h1v-2h-4.382l-2.7179985-5.4470005  c-0.2947044-0.4942951-0.9343147-0.6560955-1.4286079-0.3613911c-0.1485977,0.0885944-0.2727966,0.2127934-0.361393,0.3613911  L33.382,25H19v2h1v5c0.0058193,4.2813606,2.2922268,8.235321,6,10.3759995V47h-8c-3.8641653,0.0044098-6.9955912,3.1358337-7,7V61z   M51,54v6H33v-6.237999l3.230999,3.8779984c0.2832069,0.3401184,0.7563057,0.4536133,1.1629982,0.2789993l1.4850006-0.637001  C42.2554626,55.8322754,44.5734291,52.6575813,44.9259987,49H46C48.7600517,49.0033073,50.9966927,51.2399483,51,54z M39.8730011,49  h3.0530014c-0.3489571,2.8555145-2.1901894,5.3099823-4.8339996,6.4440002l-0.7999992,0.3429985L34.1349983,52H36  C37.8232765,51.9978943,39.4151344,50.7648506,39.8730011,49z M22,32v-5h12  c0.380825,0.002079,0.7297745-0.2123299,0.9000015-0.5529995L37,22.2360001l2.0999985,4.2110004  C39.2702255,26.7876701,39.619175,27.002079,40,27h2v5c0,5.5228462-4.4771538,10-10,10S22,37.5228462,22,32z M32,44  c1.3635521-0.0028687,2.716507-0.2396393,4-0.7000008V48c0,0.5522842,0.4477158,1,1,1h0.7220001  C37.367588,49.6167526,36.7113266,49.9978561,36,50h-8c-0.7113266-0.0021439-1.367588-0.3832474-1.7220001-1H27  c0.5522842,0,1-0.4477158,1-1v-4.7000008C29.2834911,43.7603607,30.636446,43.9971313,32,44z M28,52h1.8649998l-3.1560001,3.7869987  l-0.7999992-0.3429985C23.264801,54.3102608,21.4231472,51.8557396,21.0739994,49h3.0529995  C24.5848656,50.7648506,26.1767235,51.9978943,28,52z M13,54c0.0033064-2.7600517,2.2399473-4.9966927,5-5h1.0739994  c0.3525696,3.6575813,2.6705322,6.8322754,6.046999,8.2819977l1.4850006,0.637001C26.7303982,57.972702,26.8645039,58.0002747,27,58  c0.2970829,0.0001869,0.578867-0.1317291,0.7689991-0.3600006L31,53.762001V60H13V54z" style="" fill="currentColor"/><path d="M45.3279991,32.8129997l-3,7.1870003H41v2h2c0.4035797,0.0000343,0.7676239-0.2425308,0.9230003-0.6150017  l3.2509995-7.7999992C48.3827705,30.6920242,49.0035019,27.5873489,49,24.4519997V24  c0.0056267-4.3530064-1.6740761-8.5391874-4.6870003-11.6809998L45.9650002,6.263  c0.1455612-0.5327578-0.1683273-1.0826426-0.7010841-1.2282019c-0.0129051-0.0035262-0.0258827-0.0067925-0.0389175-0.009798  l-5.1749992-1.194c-5.2979012-1.2149844-10.8021011-1.2149851-16.1000004,0l-5.1749992,1.194  c-0.5381699,0.1240673-0.8738651,0.6609159-0.7497978,1.1990848c0.003006,0.0130358,0.0062714,0.02601,0.009798,0.0389152  l1.6879997,6.1910005c-3.0173264,3.2700405-4.7020903,7.5506191-4.7229996,12  c-0.0032377,3.134676,0.6174879,6.2386456,1.8260002,9.1309986l3.2509995,7.7999992  C20.232378,41.7574692,20.5964203,42.0000343,21,42h2v-2h-1.3330002l-3-7.1860008  C17.5625496,30.1647186,16.9958973,27.3222752,17,24.4519997c0.0158443-3.5071678,1.1971149-6.909565,3.3579998-9.6719999  l0.677,2.4830008c0.1451836,0.5328598,0.6948471,0.8471336,1.2277088,0.7019501  c0.0081253-0.0022144,0.0162239-0.0045319,0.024292-0.0069504c6.3350754-1.9060078,13.0909252-1.9060078,19.4260006,0  c0.5290222,0.1585999,1.0864487-0.1416874,1.2450485-0.6707096c0.0024185-0.0080662,0.0047379-0.0161648,0.0069504-0.0242901  l0.7200012-2.6420002C45.8354759,17.2732105,47.0062065,20.5855141,47,24v0.4519997  C47.0031052,27.3223476,46.4347229,30.1645908,45.3279991,32.8129997z M41.2999992,15.7620001  c-6.090889-1.6449785-12.5091114-1.6449785-18.6000004,0l-2.461998-9.0220003l4.1619987-0.9599996  c5.0016747-1.1476841,10.1983242-1.1476836,15.1999989,0l4.1609993,0.96L41.2999992,15.7620001z" style="" fill="currentColor"/><polygon points="33,7 31,7 31,9 29,9 29,11 31,11 31,13 33,13 33,11 35,11 35,9 33,9 " style="" fill="currentColor"/><path d="M27,29.25c-0.9664974,0-1.75,0.7835026-1.75,1.75s0.7835026,1.75,1.75,1.75s1.75-0.7835026,1.75-1.75  C28.7488976,30.0339584,27.9660416,29.2511024,27,29.25z M26.75,31c0-0.1380711,0.1119289-0.25,0.25-0.25s0.25,0.1119289,0.25,0.25  C27.25,31.2749996,26.75,31.2749996,26.75,31z" style="" fill="currentColor"/><path d="M37,32.75c0.9664993,0,1.75-0.7835026,1.75-1.75s-0.7835007-1.75-1.75-1.75s-1.75,0.7835026-1.75,1.75  C35.2511024,31.9660416,36.0339584,32.7488976,37,32.75z M37,30.75c0.138073,0,0.25,0.1119289,0.25,0.25  c0,0.2749996-0.5,0.2749996-0.5,0C36.75,30.8619289,36.861927,30.75,37,30.75z" style="" fill="currentColor"/><path d="M35.75,36h-1.5c0,1.2426414-1.0073586,2.25-2.25,2.25s-2.25-1.0073586-2.25-2.25h-1.5c0,2.0710678,1.6789322,3.75,3.75,3.75  S35.75,38.0710678,35.75,36z" style="" fill="currentColor"/></svg>