<svg xmlns="http://www.w3.org/2000/svg" xmlns:xlink="http://www.w3.org/1999/xlink" version="1.1" x="0px" y="0px" viewBox="0 0 512 512" style="enable-background:new 0 0 512 512;max-width:100%" xml:space="preserve"><g style="" fill="currentColor"><g style="" fill="currentColor"><g style="" fill="currentColor"><path d="M375,496H137c-22.607,0-41-18.393-41-41V241.714c0-5.523,4.477-10,10-10s10,4.477,10,10V455c0,11.579,9.42,21,21,21h238     c11.579,0,21-9.421,21-21V136.857c0-5.523,4.478-10,10-10s10,4.477,10,10V455C416,477.607,397.607,496,375,496z M106,201.714     c-5.523,0-10-4.477-10-10V57c0-22.607,18.393-41,41-41h238c22.607,0,41,18.393,41,41v29.857c0,5.523-4.478,10-10,10     s-10-4.477-10-10V57c0-11.58-9.421-21-21-21H137c-11.58,0-21,9.42-21,21v134.714C116,197.237,111.523,201.714,106,201.714z" style="" fill="currentColor"/></g><g style="" fill="currentColor"><path d="M368.5,415.688h-225c-5.523,0-10-4.478-10-10v-275c0-5.523,4.477-10,10-10s10,4.477,10,10v265h210.155     c-3.074-1.706-5.155-4.985-5.155-8.75V106.313H159.125c-5.523,0-10-4.477-10-10s4.477-10,10-10H368.5c5.522,0,10,4.477,10,10     v290.625c0,4.296-2.709,7.96-6.513,9.375c3.804,1.415,6.513,5.079,6.513,9.375C378.5,411.21,374.022,415.688,368.5,415.688z" style="" fill="currentColor"/></g><g style="" fill="currentColor"><path d="M278.5,66H226c-5.523,0-10-4.477-10-10s4.477-10,10-10h52.5c5.522,0,10,4.477,10,10S284.022,66,278.5,66z" style="" fill="currentColor"/></g><circle cx="256" cy="443.188" r="18.75" style="" fill="currentColor"/><rect x="166" y="116" width="20" height="20" style="" fill="currentColor"/><rect x="196" y="116" width="20" height="20" style="" fill="currentColor"/><rect x="226" y="116" width="20" height="20" style="" fill="currentColor"/><g style="" fill="currentColor"><path d="M326,336H186c-5.523,0-10-4.478-10-10s4.477-10,10-10h140c5.522,0,10,4.478,10,10S331.522,336,326,336z" style="" fill="currentColor"/></g><g style="" fill="currentColor"><path d="M326,376H186c-5.523,0-10-4.478-10-10s4.477-10,10-10h140c5.522,0,10,4.478,10,10S331.522,376,326,376z" style="" fill="currentColor"/></g><g style="" fill="currentColor"><path d="M256,296c-38.598,0-70-31.402-70-70c0-38.598,31.402-70,70-70c38.598,0,70,31.402,70,70C326,264.598,294.598,296,256,296     z M256,176c-27.57,0-50,22.43-50,50s22.43,50,50,50s50-22.43,50-50S283.57,176,256,176z" style="" fill="currentColor"/></g><g style="" fill="currentColor"><path d="M276,236h-40c-5.523,0-10-4.477-10-10s4.477-10,10-10h40c5.522,0,10,4.477,10,10S281.522,236,276,236z" style="" fill="currentColor"/></g><g style="" fill="currentColor"><path d="M256,256c-5.523,0-10-4.477-10-10v-40c0-5.523,4.477-10,10-10c5.522,0,10,4.477,10,10v40     C266,251.523,261.522,256,256,256z" style="" fill="currentColor"/></g></g></g></svg>