<svg xmlns="http://www.w3.org/2000/svg" viewBox="0 0 64 64" x="0px" y="0px" style="max-width:100%"><g style="" fill="currentColor"><path d="M6,62H28V49h2.2a8.944,8.944,0,0,0,1.722,7.359l.032,2.221h0v0h0L32,62.015,33,62l1-.014h0v-.04l-.085-5.959a1,1,0,0,0-.234-.63,7.03,7.03,0,0,1-1.661-4.715A3.988,3.988,0,1,0,36,44.142V36h.434l5.709,9.515a1.039,1.039,0,0,0,1.714,0L49.566,36H50v6.1A5.009,5.009,0,0,0,46,47v5a1,1,0,0,0,1,1h2V51H48V47a3,3,0,0,1,6,0v4H53v2h.545a7.184,7.184,0,0,1-1.311,2.356A1.006,1.006,0,0,0,52,56v6h2V56.353a9.122,9.122,0,0,0,1.687-3.632A.993.993,0,0,0,56,52V49h2V62h2V49h1a1,1,0,0,0,.989-1.146l-1.3-8.842A6,6,0,0,0,54.76,34H52a4,4,0,0,0-4-4v-.37A9.891,9.891,0,0,0,52.777,23H53a3.987,3.987,0,0,0,2-7.444V13.643A5.992,5.992,0,1,0,49.213,3.352,10.862,10.862,0,0,0,44,2H42A11.013,11.013,0,0,0,31,13v2.556A3.987,3.987,0,0,0,29,19a3.939,3.939,0,0,0,.142,1H22a4,4,0,0,0-8,0H6a4,4,0,0,0-4,4V58A4,4,0,0,0,6,62Zm20-6H8V26h2.153l-.139.835A1,1,0,0,0,11,28H25a1,1,0,0,0,.986-1.165L25.847,26H28v8.993a6.022,6.022,0,0,0-2.642,4.118l-1.346,8.736A1,1,0,0,0,25,49h1Zm5.511-33.294A1.988,1.988,0,0,1,32,24V34h-.71a5.956,5.956,0,0,0-1.29.148V25a1,1,0,0,0-1-1H25.514l-.334-2H30a1.7,1.7,0,0,1,.474.076A4,4,0,0,0,31.511,22.706ZM38,30a4,4,0,0,0-4,4V25.341a9.915,9.915,0,0,0,4,4.289ZM37,48a2,2,0,1,1-2-2A2,2,0,0,1,37,48Zm-3-3.858a3.984,3.984,0,0,0-2,1.237l-.028-.024A8.305,8.305,0,0,0,30.9,47H26.166l1.155-7.48.017-.128a4,4,0,0,1,2.124-2.945A3.911,3.911,0,0,1,31.29,36H34ZM36,34a2,2,0,0,1,2-2v2H36Zm7,9.056L38.688,35.87A2,2,0,0,0,40,34V30.523a9.672,9.672,0,0,0,6,0V34a2,2,0,0,0,1.312,1.87ZM54,36h.76a4,4,0,0,1,3.951,3.326L59.842,47H56a5.009,5.009,0,0,0-4-4.9V36Zm-4-2H48V32A2,2,0,0,1,50,34Zm-3.447-5.834a8.121,8.121,0,0,1-7.108,0A7.955,7.955,0,0,1,35,21V16.523c4.8-1.353,10.414-5.316,12.648-6.991L51,16.236V21A7.956,7.956,0,0,1,46.553,28.166ZM53,21V17a2,2,0,0,1,0,4ZM57,8a4,4,0,0,1-2.1,3.509,10.941,10.941,0,0,0-3.874-6.965A3.97,3.97,0,0,1,57,8ZM33,13a9.01,9.01,0,0,1,9-9h2a9.029,9.029,0,0,1,9,8.9V15h-.382L48.9,7.553a1,1,0,0,0-1.519-.334c-.079.063-7.905,6.281-13.6,7.556-.268.061-.528.111-.777.147Zm0,4v4a2,2,0,0,1,0-4ZM15,22a1,1,0,0,0,1-1V20a2,2,0,0,1,4,0v1a1,1,0,0,0,1,1h2.153l.666,4H12.181l.666-4ZM4,24a2,2,0,0,1,2-2h4.82l-.334,2H7a1,1,0,0,0-1,1V57a1,1,0,0,0,1,1H26v2H6a2,2,0,0,1-2-2Zm6,14h2v2H10Zm4,0h9v2H14Zm-4,4h2v2H10Zm4,0h9v2H14Zm-4,4h2v2H10Zm12,2H14V46h8ZM10,50h2v2H10Zm4,0h9v2H14Zm3-16H15V32h2V30h2v2h2v2H19v2H17ZM38.5,16A1.5,1.5,0,1,0,40,17.5,1.5,1.5,0,0,0,38.5,16Zm9,0A1.5,1.5,0,1,0,49,17.5,1.5,1.5,0,0,0,47.5,16ZM44,22h2a3,3,0,0,1-6,0h2a1,1,0,0,0,2,0Z" style="" fill="currentColor"/></g></svg>